<svg xmlns="http://www.w3.org/2000/svg" viewBox="0 0 512 512">
  <defs>
    <linearGradient id="eg1" x1="0%" y1="0%" x2="0%" y2="100%">
      <stop offset="0%" stop-color="#21A366"/>
      <stop offset="100%" stop-color="#107C41"/>
    </linearGradient>
  </defs>
  <!-- Back spreadsheet panel -->
  <rect x="156" y="48" width="308" height="416" rx="12" fill="#fff"/>
  <rect x="156" y="48" width="308" height="416" rx="12" fill="none" stroke="#E0E0E0" stroke-width="2"/>
  <!-- Grid -->
  <line x1="260" y1="88" x2="260" y2="424" stroke="#C8D6C5" stroke-width="1.5"/>
  <line x1="360" y1="88" x2="360" y2="424" stroke="#C8D6C5" stroke-width="1.5"/>
  <line x1="196" y1="128" x2="424" y2="128" stroke="#C8D6C5" stroke-width="1.5"/>
  <line x1="196" y1="168" x2="424" y2="168" stroke="#C8D6C5" stroke-width="1.5"/>
  <line x1="196" y1="208" x2="424" y2="208" stroke="#C8D6C5" stroke-width="1.5"/>
  <line x1="196" y1="248" x2="424" y2="248" stroke="#C8D6C5" stroke-width="1.5"/>
  <line x1="196" y1="288" x2="424" y2="288" stroke="#C8D6C5" stroke-width="1.5"/>
  <line x1="196" y1="328" x2="424" y2="328" stroke="#C8D6C5" stroke-width="1.5"/>
  <line x1="196" y1="368" x2="424" y2="368" stroke="#C8D6C5" stroke-width="1.5"/>
  <line x1="196" y1="408" x2="424" y2="408" stroke="#C8D6C5" stroke-width="1.5"/>
  <!-- Highlighted cells -->
  <rect x="196" y="88" width="64" height="40" fill="#E2EFDA"/>
  <rect x="260" y="88" width="100" height="40" fill="#E2EFDA"/>
  <rect x="360" y="88" width="64" height="40" fill="#E2EFDA"/>
  <!-- Front green panel -->
  <rect x="48" y="88" width="220" height="336" rx="16" fill="url(#eg1)"/>
  <!-- X letter -->
  <path d="M112 184 L192 328 M192 184 L112 328" fill="none" stroke="white" stroke-width="18" stroke-linecap="round"/>
</svg>