<svg xmlns="http://www.w3.org/2000/svg" viewBox="0 0 512 512">
  <defs>
    <linearGradient id="pg1" x1="0%" y1="0%" x2="0%" y2="100%">
      <stop offset="0%" stop-color="#D24726"/>
      <stop offset="100%" stop-color="#C43E1C"/>
    </linearGradient>
  </defs>
  <!-- Back slide panel -->
  <rect x="156" y="48" width="308" height="416" rx="12" fill="#fff"/>
  <rect x="156" y="48" width="308" height="416" rx="12" fill="none" stroke="#E0E0E0" stroke-width="2"/>
  <!-- Slide 1 -->
  <rect x="192" y="82" width="236" height="140" rx="6" fill="#F8F0ED"/>
  <rect x="216" y="116" width="132" height="12" rx="6" fill="#D4B8AD"/>
  <rect x="232" y="142" width="100" height="8" rx="4" fill="#E0D0C8"/>
  <rect x="242" y="162" width="80" height="8" rx="4" fill="#E0D0C8"/>
  <!-- Slide 2 -->
  <rect x="192" y="238" width="236" height="140" rx="6" fill="#F8F0ED"/>
  <rect x="216" y="272" width="120" height="12" rx="6" fill="#D4B8AD"/>
  <rect x="220" y="298" width="148" height="8" rx="4" fill="#E0D0C8"/>
  <rect x="220" y="318" width="120" height="8" rx="4" fill="#E0D0C8"/>
  <rect x="220" y="338" width="80" height="8" rx="4" fill="#E0D0C8"/>
  <!-- Slide 3 (partial) -->
  <rect x="192" y="394" width="236" height="46" rx="6" fill="#F8F0ED"/>
  <rect x="216" y="410" width="100" height="10" rx="5" fill="#D4B8AD"/>
  <!-- Front red panel -->
  <rect x="48" y="88" width="220" height="336" rx="16" fill="url(#pg1)"/>
  <!-- P letter -->
  <path d="M120 328 L120 184 L160 184 C190 184 210 204 210 232 C210 260 190 280 160 280 L120 280" fill="none" stroke="white" stroke-width="18" stroke-linecap="round" stroke-linejoin="round"/>
</svg>