<svg xmlns="http://www.w3.org/2000/svg" viewBox="0 0 512 512">
  <defs>
    <linearGradient id="wg1" x1="0%" y1="0%" x2="100%" y2="100%">
      <stop offset="0%" stop-color="#2B579A"/>
      <stop offset="100%" stop-color="#1A3668"/>
    </linearGradient>
    <linearGradient id="wg2" x1="0%" y1="0%" x2="0%" y2="100%">
      <stop offset="0%" stop-color="#3C6DB5"/>
      <stop offset="100%" stop-color="#2B579A"/>
    </linearGradient>
  </defs>
  <!-- Back document panel -->
  <rect x="156" y="48" width="308" height="416" rx="12" fill="#fff"/>
  <rect x="156" y="48" width="308" height="416" rx="12" fill="none" stroke="#E0E0E0" stroke-width="2"/>
  <!-- Document lines -->
  <rect x="196" y="108" width="228" height="10" rx="5" fill="#D0D7E2"/>
  <rect x="196" y="138" width="228" height="10" rx="5" fill="#D0D7E2"/>
  <rect x="196" y="168" width="180" height="10" rx="5" fill="#D0D7E2"/>
  <rect x="196" y="198" width="228" height="10" rx="5" fill="#D0D7E2"/>
  <rect x="196" y="228" width="200" height="10" rx="5" fill="#D0D7E2"/>
  <rect x="196" y="258" width="228" height="10" rx="5" fill="#D0D7E2"/>
  <rect x="196" y="288" width="160" height="10" rx="5" fill="#D0D7E2"/>
  <rect x="196" y="318" width="228" height="10" rx="5" fill="#D0D7E2"/>
  <rect x="196" y="348" width="210" height="10" rx="5" fill="#D0D7E2"/>
  <rect x="196" y="378" width="228" height="10" rx="5" fill="#D0D7E2"/>
  <!-- Front blue panel -->
  <rect x="48" y="88" width="220" height="336" rx="16" fill="url(#wg2)"/>
  <!-- W letter -->
  <path d="M96 176 L120 336 L144 248 L168 336 L192 176" fill="none" stroke="white" stroke-width="16" stroke-linecap="round" stroke-linejoin="round"/>
</svg>